{
	"asset":{
		"copyright":"BlueRaven",
		"generator":"Khronos glTF Blender I/O v3.5.30",
		"version":"2.0"
	},
	"extensionsUsed":[
		"KHR_materials_specular",
		"KHR_materials_ior"
	],
	"scene":0,
	"scenes":[
		{
			"name":"Scene",
			"nodes":[
				0
			]
		}
	],
	"nodes":[
		{
			"mesh":0,
			"name":"remo 1",
			"rotation":[
				-0.10283878445625305,
				-0.2958269417285919,
				-0.21732184290885925,
				0.9244900345802307
			],
			"translation":[
				2.4534478187561035,
				0.5163620114326477,
				0.1328294426202774
			]
		}
	],
	"materials":[
		{
			"alphaCutoff":0.5,
			"alphaMode":"MASK",
			"doubleSided":true,
			"extensions":{
				"KHR_materials_specular":{
					"specularColorFactor":[
						0,
						0,
						0
					]
				},
				"KHR_materials_ior":{
					"ior":1.4500000476837158
				}
			},
			"name":"barca",
			"pbrMetallicRoughness":{
				"baseColorTexture":{
					"index":0
				},
				"metallicFactor":0,
				"roughnessFactor":0
			}
		}
	],
	"meshes":[
		{
			"name":"Cube.013",
			"primitives":[
				{
					"attributes":{
						"POSITION":0,
						"TEXCOORD_0":1,
						"NORMAL":2
					},
					"indices":3,
					"material":0
				}
			]
		}
	],
	"textures":[
		{
			"sampler":0,
			"source":0
		}
	],
	"images":[
		{
			"mimeType":"image/png",
			"name":"Barca2",
			"uri":"Barca2.png"
		}
	],
	"accessors":[
		{
			"bufferView":0,
			"componentType":5126,
			"count":414,
			"max":[
				1.9346201419830322,
				0.047371264547109604,
				4.566046714782715
			],
			"min":[
				-5.081813335418701,
				-2.54152250289917,
				-2.8085861206054688
			],
			"type":"VEC3"
		},
		{
			"bufferView":1,
			"componentType":5126,
			"count":414,
			"type":"VEC2"
		},
		{
			"bufferView":2,
			"componentType":5126,
			"count":414,
			"type":"VEC3"
		},
		{
			"bufferView":3,
			"componentType":5123,
			"count":642,
			"type":"SCALAR"
		}
	],
	"bufferViews":[
		{
			"buffer":0,
			"byteLength":4968,
			"byteOffset":0,
			"target":34962
		},
		{
			"buffer":0,
			"byteLength":3312,
			"byteOffset":4968,
			"target":34962
		},
		{
			"buffer":0,
			"byteLength":4968,
			"byteOffset":8280,
			"target":34962
		},
		{
			"buffer":0,
			"byteLength":1284,
			"byteOffset":13248,
			"target":34963
		}
	],
	"samplers":[
		{
			"magFilter":9728,
			"minFilter":9984
		}
	],
	"buffers":[
		{
			"byteLength":14532,
			"uri":"Barco_remos.bin"
		}
	]
}
